<?xml version="1.0" encoding="UTF-8"?>
<svg id="Layer_2" data-name="Layer 2" xmlns="http://www.w3.org/2000/svg" viewBox="0 0 3000 1500">
  <defs>
    <style>
      .cls-1 {
        fill: #df8f5a;
      }

      .cls-2, .cls-3 {
        fill: none;
      }

      .cls-4 {
        fill: #f7dfc9;
      }

      .cls-3 {
        stroke: #000;
        stroke-linecap: round;
        stroke-linejoin: round;
        stroke-width: 4px;
      }
    </style>
  </defs>
  <g id="_Ñëîé_1" data-name="Ñëîé 1">
    <rect class="cls-2" width="3000" height="1500"/>
    <g>
      <path class="cls-4" d="M2688,950.54c54.1-14.3,110.68-15.78,166.65-15.96-15.72,12.2-35.52,17.71-54.96,21.96-76.91,16.82-161.62,20.21-223.11,69.38-19.97,15.97-39.01,37.33-64.55,38.72,12.91-15.48,121.86-99.8,175.97-114.1Z"/>
      <path class="cls-4" d="M1791.27,773.15c74.2,116.52,96.05,217.26,140.59,372.96,6.97,24.36-9.08,12.59-15.15-5.91-42.11-128.5-96.6-262.38-153.71-384.95-2.72-5.84,19.16,3.6,28.27,17.9Z"/>
      <path class="cls-1" d="M1787.57,1100.63c14.03,205.07,33.16,251.56,60,247.03,93.3-15.74,418.96-195.67,457.36-188.13,23.16,4.55-5.59,51.57,25.09,42.57,53.13-15.58,198.8-63.89,204.2-79.66,4.86-14.19-16.56-28.01,24.79-36.35,56.3-11.36,365.08-121.33,335.4-113.91-102.65,9.19-347.87,85.54-444.3,121.93-54.4,20.52-62.99,35.22-130.33,39.43-133.81,8.36-312.86,137.87-440.99,177.32-17.86,5.5-36.48,1.41-45.6-26.07-17.19-51.79-51.29-266.96-45.63-184.15Z"/>
      <path class="cls-4" d="M2055.33,864.19c-53.66-104.18-112.25-171.21-176.87-297.85,114.39,22.36,195.11,56.92,250.57,107.36,25.07,22.81,145.82,282.99,232.92,242.87,9.61-78.01-183.6-226.14-158.78-298.59,12.9-37.65,223.74-149.85,246.46-114.13,7.84,12.34,259.71,284.09,249.08,297.74-11.31,14.52-279.16,10.99-297.45,198.01-33.26,5.16-34.8-14.58-61.57-34.29-73.84-54.37-245.74-26.13-284.36-101.13Z"/>
      <path class="cls-3" d="M2794.32,504.48s-122.46-86.74-235.18,3.3c-7.27,5.81-19.97,11.83-33.95-2.6-15.25-15.73-13.83-38.97-7.75-31.92,91.4,105.82,196.28,266.41,320.51,372.05,37.9,32.23,78.64,63.77,101.65,107.88-115.2,29.99-228.1,68.8-337.39,115.97-31.31,13.51-64.51,28.04-98.23,22.96-15.5-2.34-30.07-8.74-45.22-12.78-15.15-4.04-31.98-5.52-45.94,1.62-13.96,7.14-23.03,25.32-15.8,39.23,1.79,3.45,4.61,6.55,8.3,7.78,5.25,1.75,10.89-.56,15.94-2.82,156.7-70.04,318.08-129.59,482.71-178.12-2-14.83-14.27-35.1-31.14-40.93-16.87-5.83-38.81.07-56.4,3.09-115.29,19.76-220.83,57.84-321.71,117.05-16.69,9.79-34.67,27.35-26.81,45.03,1.76,3.95,59.55-44.26,81.36-69.45,70.57-81.48,191.47-120.96,302.03-112.72,4.54-11.55-4.77-24.84-16.46-29-11.69-4.16-24.61-1.66-36.65,1.31-26.81,6.61-53.02,15.39-79.19,24.2-53.06,17.85-106.45,36.02-154.98,63.91-48.54,27.89-92.46,66.45-117.78,116.38-93.75-138.18-187.51-276.36-281.26-414.55-3.76-5.54-7.61-11.3-8.78-17.89-2.8-15.69,9.98-29.51,22.09-39.87,64.81-55.48,141.71-96.76,223.76-120.12,17.48-4.98,35.74-9.18,53.69-6.37,17.95,2.81,35.64,14.13,89.93,80.98,54.29,66.85,152.99,179.93,256.22,288.71-81.96,8.92-161.38,37.55-231.08,81.55-63.39,40.02-118.74,92.76-160.64,154.96-49.38-71.64-115.41-57.28-179.72-75.42-34.45-9.72-66.3-28.76-101.26-36.46-34.96-7.7-81.52.16-112.92,17.35-39.14-159.56-191.99-440.46-188.41-420.14,20.41,115.59,143.97,206.84,177.05,319.46,4.23,14.4,7.04,23.82,9.31,30.18,5.59,15.68,4.6,7.55,42.21,14.33,115.36,20.8,336.61,94.26,355.46,115.31,4.59,5.12,2.52,15.13-3.88,17.65-55.32-88.26-116.74-172.67-172.06-260.93-27.19-43.38-54.47-86.93-75.63-133.55-5.89-12.99-11.51-26.5-21.37-36.81-10.84-11.32-25.75-17.65-40.25-23.63-90.7-37.38-190.31-72.87-284.89-46.83,12.3,28.38,24.88,58.68,20.12,89.24-4.75,30.56-46.8,52.87-64.32,50.96-7.15-.78,12.06-12.63,28.84-22.9,18.07-11.06,22.11,1.32,25.37,7.29,41.99,76.77,67.15,162.15,113.38,236.44,44.63,71.69,36.89,143.11,7.94,144.17,10.03-26.72,29.88-41.46,57.9-46.83,130.6-25.01,263.36,19.74,388.8,63.85-41.74-43.72-110.01-44.76-170.42-42.78-87.93,2.89-178.12,6.24-259.3,40.16-17.53,7.32-37.44,38.14-25.87,53.2,14.38-11,1.44-39.58-3.48-52.97-39.17-106.37-78.35-212.73-117.52-319.1-6.37-17.31-24.33-58.06-32.9-41.73-9.29,17.72-9.89,21.7-36.88,36.04-11.53,6.12-13.87,15.93,14.37,69.68,53.66,102.12,101.06,207.87,131.93,319.03,5.99,21.56,30.92,73.96-30.35,157.15,28.83-1.38,53.63-19.67,77.36-36.1,125.03-86.51,273.04-139.47,424.57-151.91,9.91-.81,22.5-3.8,23.82-13.65-142.14,7.78-148.99-7.01-280.1,13.96-75.11,12.01-156.46,40.71-192.27,107.82-14.11,26.43-25.92,64.32-44.38,87.91-5.22,6.67-17.67,13.34-19.74-11.44-16.11-192.91-132.42-351.28-135.66-525.97-.4-21.66,23.26,37.41-5.05,58.76-8.59,6.48-10.64,17.14-8.76,27.06,10.79,56.96,83.8,153.5,123.87,449.26,4.38,32.33,16.77,32.23,29.83,26.86,153.88-63.26,324.21-161.39,446.99-181.27,7.57-1.23,29.43,1.66,27.53,13.54-.89,5.55-6.39,9.58-7.03,15.17-1.37,11.97,16.87,13.83,28.43,10.45,53.34-15.6,105.85-34,157.26-55.1,8.33-3.42,15.51-15.03,14.66-23.99-.7-7.38-142.69,53.88-170.06,53.68-10.01-.07-16.02-18.97-21.95-16.63-135.11,53.52-380.58,213.4-494.82,233.04-125.29,21.54-192.76-85.61-154.77-177.45,28.43-68.73,46.37,94.82-71.07,158.39-96.46,52.22-244.15,59.31-661.41,0"/>
    </g>
  </g>
</svg>